<svg xmlns="http://www.w3.org/2000/svg" width="1200" height="1500" viewBox="0 0 1200 1500">
<defs><linearGradient id="g" x1="0" y1="0" x2="1" y2="1"><stop offset="0" stop-color="#2b3140"/><stop offset="1" stop-color="#1f2430"/></linearGradient></defs>
<rect width="1200" height="1500" fill="url(#g)"/>
<g fill="none" stroke="#e4d3a3" stroke-width="2.20" stroke-linecap="round" stroke-linejoin="round" opacity=".9"><g transform="translate(40.0 515.0) scale(3.200)"><path d="M38 18h12v10c8 4 12 12 12 24v24a6 6 0 0 1-6 6H32a6 6 0 0 1-6-6V52c0-12 4-20 12-24z"/><path d="M64 62h22l-3 16a8 8 0 0 1-8 6h-2a8 8 0 0 1-8-6z"/></g><g transform="translate(440.0 515.0) scale(3.200)"><path d="M14 50c12-16 30-24 50-20 8 4 14 10 20 20-6 10-12 16-20 20-20 4-38-4-50-20z"/><circle cx="66" cy="46" r="3"/><path d="M84 50l8-10v20z"/><path d="M40 36l6 14-6 14"/></g><g transform="translate(840.0 515.0) scale(3.200)"><path d="M14 86 86 14"/><circle cx="34" cy="66" r="9"/><circle cx="50" cy="50" r="9"/><circle cx="66" cy="34" r="9"/></g></g>
<text x="600.0" y="903" text-anchor="middle" font-family="'Hiragino Sans','Noto Sans CJK JP',sans-serif" font-size="31" letter-spacing="3" fill="rgba(255,255,255,.55)">お店の写真が入ります</text>
</svg>