<svg xmlns="http://www.w3.org/2000/svg" width="1000" height="750" viewBox="0 0 1000 750">
<defs><linearGradient id="g" x1="0" y1="0" x2="1" y2="1"><stop offset="0" stop-color="#e6ecf0"/><stop offset="1" stop-color="#cfd9e0"/></linearGradient></defs>
<rect width="1000" height="750" fill="url(#g)"/>
<g fill="none" stroke="#235670" stroke-width="2.20" stroke-linecap="round" stroke-linejoin="round" opacity=".9"><g transform="translate(145.6 180.0) scale(3.150)"><path d="M30 30h24a10 10 0 0 1 10 10v6"/><path d="M30 24v12M22 30h16"/><path d="M58 46h12"/><path d="M64 56c-4 6-4 9 0 10 4-1 4-4 0-10z"/><path d="M16 74h68v10H16z"/></g><g transform="translate(539.4 180.0) scale(3.150)"><path d="M50 18l6 22 22 6-22 6-6 22-6-22-22-6 22-6z"/><path d="M78 20l2 6 6 2-6 2-2 6-2-6-6-2 6-2z"/></g></g>
<text x="500.0" y="552" text-anchor="middle" font-family="'Hiragino Sans','Noto Sans CJK JP',sans-serif" font-size="26" letter-spacing="3" fill="#5a6872">工事後の写真が入ります</text>
</svg>